<svg width="353" height="116" viewBox="0 0 353 116" fill="none" xmlns="http://www.w3.org/2000/svg">
<path d="M81.1 42.4625H81H56.3C70.1 35.5576 71.2 31.1546 70.7 28.7529C69.5 24.7501 65 21.748 60.7 23.3491C55.1 25.4506 53.6 33.7564 52.1 39.7606C50.1 33.6563 48.3 25.9509 43.9 22.0482C42.6 20.9474 40.8 19.7466 38.1 20.0468C34.1 20.4471 28.3 25.4506 30.6 31.0545C32.9 36.4583 40.3 39.8607 45.2 42.5626H23.2H22.9C21.3 42.5626 20 43.8635 20 45.4646V56.7725C20 58.3736 21.3 59.6745 22.9 59.6745H23.2V92.9979V95.3996V96H81V95.4996V92.9979V59.5745H81.1C82.7 59.5745 84 58.2736 84 56.6724V45.3645C84 43.7634 82.7 42.4625 81.1 42.4625ZM62.4 25.8508C64.5 25.5506 67.4 27.1518 67.7 29.0531C68.1 31.8551 64.3 34.3568 62.6 35.4576C60.1 37.1588 57.7 38.0594 55.3 39.5604C56.2 35.8579 57.8 26.5513 62.4 25.8508ZM39.5 35.8579C37.3 34.3568 33 31.4548 33.1 28.0524C33.2 24.4499 38.8 21.4478 41.9 24.1497C45.8 27.552 47.6 35.2574 49 40.7613C45.8 39.2602 42.7 37.9593 39.5 35.8579ZM45.5 92.9979H26.1V59.5745H45.5V92.9979ZM45.5 56.4723H23V45.4646H45.5V56.4723ZM55.7 56.4723V59.4744V92.9979H48.5V59.5745V56.5724V45.5647H55.7V56.4723ZM78 92.9979H58.6V59.5745H78V92.9979ZM80.9 56.4723H58.6V45.4646H80.9V56.4723Z" fill="#83B3D3"/>
<path d="M163.618 85H179.683V61.2H163.618V85ZM166.53 64.1H176.671V82.1H166.53V64.1Z" fill="#83B3D3"/>
<path d="M206.892 59.3L209 57.2L199.06 47.3V20H185.104V33.6L171.45 20L134 57.2L136.108 59.3L143.94 51.5V89.1H139.924V92H204.08V89.1H198.96V51.5L206.892 59.3ZM196.048 89.1H146.851V48.5L171.45 24.1L196.048 48.5V89.1ZM196.048 44.4L188.116 36.5V22.9H196.048V44.4Z" fill="#83B3D3"/>
<path d="M163.819 47.1C163.819 51.4 167.333 54.8 171.55 54.8C175.867 54.8 179.382 51.3 179.382 47.1C179.382 42.8 175.867 39.4 171.55 39.4C167.333 39.4 163.819 42.8 163.819 47.1ZM171.651 42.1C174.361 42.1 176.671 44.3 176.671 47C176.671 49.7 174.462 51.9 171.651 51.9C168.94 51.9 166.631 49.7 166.631 47C166.631 44.3 168.839 42.1 171.651 42.1Z" fill="#83B3D3"/>
<path d="M153.98 61.2H150.968V65.1H153.98V61.2Z" fill="#83B3D3"/>
<path d="M159.904 61.2H156.892V65.1H159.904V61.2Z" fill="#83B3D3"/>
<path d="M153.98 67.2H150.968V71.1H153.98V67.2Z" fill="#83B3D3"/>
<path d="M159.904 67.2H156.892V71.1H159.904V67.2Z" fill="#83B3D3"/>
<path d="M186.008 61.2H182.996V65.1H186.008V61.2Z" fill="#83B3D3"/>
<path d="M191.932 61.2H188.92V65.1H191.932V61.2Z" fill="#83B3D3"/>
<path d="M186.008 67.2H182.996V71.1H186.008V67.2Z" fill="#83B3D3"/>
<path d="M191.932 67.2H188.92V71.1H191.932V67.2Z" fill="#83B3D3"/>
<path d="M328.776 66.7H262.81C260.505 66.7 258.7 68.6 258.7 71V74.5C258.7 76.9 260.605 78.8 262.81 78.8H263.713V79.9C263.713 85.4 268.024 90 273.337 90H318.049C323.362 90 327.673 85.5 327.673 79.9V78.8H328.575C330.881 78.8 332.686 76.9 332.686 74.5V71C332.886 68.7 330.981 66.7 328.776 66.7ZM324.866 79.9C324.866 83.8 321.859 86.9 318.149 86.9H273.337C269.628 86.9 266.62 83.7 266.62 79.9V78.8H324.866V79.9ZM329.979 74.5C329.979 75.2 329.377 75.8 328.776 75.8H262.71C262.008 75.8 261.507 75.2 261.507 74.5V71C261.507 70.3 262.109 69.7 262.71 69.7H328.676C329.377 69.7 329.879 70.3 329.879 71C329.979 71 329.979 74.5 329.979 74.5Z" fill="#83B3D3"/>
<path d="M274.339 58.4L279.753 62.5L285.066 58.4L290.38 62.5L295.693 58.4L301.107 62.5L306.42 58.4L311.733 62.5L317.147 58.4L322.46 62.5L328.676 57.8L326.971 55.3L322.46 58.7L317.147 54.6L311.733 58.7L306.42 54.6L301.107 58.7L295.693 54.6L290.38 58.7L285.066 54.6L279.753 58.7L274.339 54.6L269.026 58.7L264.515 55.3L262.81 57.8L269.026 62.5L274.339 58.4Z" fill="#83B3D3"/>
<path d="M266.72 51.5H327.673C327.673 50.9 327.773 50.3 327.773 49.6C327.773 49.2 327.773 48.8 327.773 48.4C327.072 32.7 313.036 20 295.793 20C278.45 20 264.415 32.7 263.713 48.5C263.713 48.9 263.713 49.3 263.713 49.7C263.713 50.3 263.708 50.9 263.809 51.5H266.72ZM295.793 23C311.432 23 324.265 34.3 324.866 48.5H266.72C267.322 34.4 280.154 23 295.793 23Z" fill="#83B3D3"/>
<path d="M295.793 37.3C296.845 37.3 297.698 36.4046 297.698 35.3C297.698 34.1954 296.845 33.3 295.793 33.3C294.741 33.3 293.888 34.1954 293.888 35.3C293.888 36.4046 294.741 37.3 295.793 37.3Z" fill="#83B3D3"/>
<path d="M287.974 32.2C289.026 32.2 289.878 31.3046 289.878 30.2C289.878 29.0954 289.026 28.2 287.974 28.2C286.922 28.2 286.069 29.0954 286.069 30.2C286.069 31.3046 286.922 32.2 287.974 32.2Z" fill="#83B3D3"/>
<path d="M303.513 32.2C304.565 32.2 305.417 31.3046 305.417 30.2C305.417 29.0954 304.565 28.2 303.513 28.2C302.461 28.2 301.608 29.0954 301.608 30.2C301.608 31.3046 302.461 32.2 303.513 32.2Z" fill="#83B3D3"/>
<rect x="0.5" y="0.5" width="351.514" height="114.947" rx="4.5" stroke="#7B61FF" stroke-dasharray="10 5"/>
</svg>
